# xmcd
#
# Track frame offsets:
#	150
#	17129
#	34513
#	54350
#	66838
#	81303
#	93333
#	112095
#	124987
#	139194
#	156259
#	172066
#	187364
#	206878
#	221490
#	241776
#	258661
#	277290
#
# Disc length: 3922 seconds
#
# Revision: 1
# Processed by: cddbd v1.5.2PL0 Copyright (c) Steve Scherf et al.
# Submitted via: audiograbber 1.83.01
#
DISCID=1c0f5012
DTITLE=Various Artist - My Country Vol 4 - CD2
DYEAR=2013
DGENRE=Country
TTITLE0=Dwight Yoakam - Take Hold Of My Hand
TTITLE1=Josh Turner - Would You Go With Me
TTITLE2=Kenny Chesney - The Boys Of Fall
TTITLE3=Easton Corbin - All Over The Road
TTITLE4=Kacey Musgraves - Blowin' Smoke
TTITLE5=Chris Young - I Can Take It From There
TTITLE6=Carrie Underwood - See You Again
TTITLE7=Jake Owen - Barefoot Blue Jean Night
TTITLE8=Jana Kramer - I Hope It Rains
TTITLE9=The Band Perry - If I Die Young
TTITLE10=Rodney Atkins - Take A Back Road
TTITLE11=Ashley Monroe - Weed Instead Of Roses
TTITLE12=Sara Evans - A Little Bit Stronger
TTITLE13=Miranda Lambert - Gunpowder and Lead
TTITLE14=Gloriana - Can't Shake You
TTITLE15=Trace Adkins - Ladies Love Country
TTITLE16=Trisha Yearwood - She's In Love With The Boy
TTITLE17=LeAnn Rimes - I Need You
EXTD=
EXTT0=
EXTT1=
EXTT2=
EXTT3=
EXTT4=
EXTT5=
EXTT6=
EXTT7=
EXTT8=
EXTT9=
EXTT10=
EXTT11=
EXTT12=
EXTT13=
EXTT14=
EXTT15=
EXTT16=
EXTT17=
PLAYORDER=
